<?xml version="1.0" standalone="no"?>
<!DOCTYPE svg PUBLIC "-//W3C//DTD SVG 20010904//EN"
 "http://www.w3.org/TR/2001/REC-SVG-20010904/DTD/svg10.dtd">
<svg version="1.0" xmlns="http://www.w3.org/2000/svg"
 width="52.000000pt" height="52.000000pt" viewBox="0 0 52.000000 52.000000"
 preserveAspectRatio="xMidYMid meet">

<g transform="translate(0.000000,52.000000) scale(0.100000,-0.100000)"
fill="#000000" stroke="none">
<path d="M327 393 c-4 -3 -7 -21 -7 -39 l0 -32 -67 -7 c-38 -3 -99 -9 -138
-13 l-70 -7 0 -35 0 -35 60 -7 c33 -4 95 -10 137 -14 l77 -6 3 -36 c2 -19 9
-37 15 -39 15 -5 143 117 143 137 0 15 -123 140 -138 140 -5 0 -12 -3 -15 -7z"/>
</g>
</svg>
