<?xml version="1.0" standalone="no"?>
<!DOCTYPE svg PUBLIC "-//W3C//DTD SVG 20010904//EN"
 "http://www.w3.org/TR/2001/REC-SVG-20010904/DTD/svg10.dtd">
<svg version="1.0" xmlns="http://www.w3.org/2000/svg"
 width="96.000000pt" height="96.000000pt" viewBox="0 0 96.000000 96.000000"
 preserveAspectRatio="xMidYMid meet">

<g transform="translate(0.000000,96.000000) scale(0.100000,-0.100000)"
fill="#000000" stroke="none">
<path d="M50 825 c-19 -23 5 -45 50 -45 21 0 42 -6 47 -12 6 -7 27 -102 48
-211 53 -278 55 -280 305 -275 l145 3 0 25 0 25 -161 3 c-152 2 -162 4 -181
25 -16 17 -29 70 -57 222 -34 188 -38 202 -66 228 -24 21 -40 27 -74 27 -27 0
-48 -6 -56 -15z"/>
<path d="M333 753 c-18 -7 -16 -40 3 -47 9 -3 125 -6 259 -6 134 0 246 -4 249
-9 11 -17 -50 -310 -68 -330 -9 -10 -31 -21 -47 -25 -25 -5 -30 -10 -27 -28 6
-46 98 -28 133 26 16 24 66 266 67 322 1 99 -15 104 -314 103 -134 0 -249 -3
-255 -6z"/>
<path d="M360 220 c-11 -11 -20 -29 -20 -40 0 -26 34 -60 60 -60 26 0 60 34
60 60 0 11 -9 29 -20 40 -11 11 -29 20 -40 20 -11 0 -29 -9 -40 -20z"/>
<path d="M640 220 c-11 -11 -20 -29 -20 -40 0 -26 34 -60 60 -60 26 0 60 34
60 60 0 11 -9 29 -20 40 -11 11 -29 20 -40 20 -11 0 -29 -9 -40 -20z"/>
</g>
</svg>
